<svg width="202" height="73" viewBox="0 0 202 73" fill="none" xmlns="http://www.w3.org/2000/svg">
<g clip-path="url(#clip0_1_87)">
<mask id="mask0_1_87" style="mask-type:luminance" maskUnits="userSpaceOnUse" x="0" y="0" width="203" height="73">
<path d="M0 7.62939e-06H202.001V73H0V7.62939e-06Z" fill="white"/>
</mask>
<g mask="url(#mask0_1_87)">
<path d="M46.8863 20.9922V12.2173C46.8863 9.91626 45.0123 8.05095 42.7005 8.05095H33.0277C30.7158 8.05095 28.8418 9.91626 28.8418 12.2173V19.4011C29.9182 18.4928 31.0078 17.9134 33.2775 17.6907C36.7204 17.3529 42.8302 19.4764 44.8669 20.2004C45.6894 20.4928 46.3514 20.7306 46.8863 20.9922Z" fill="#2A562B"/>
<path d="M64.0987 40.5033L57.3405 36.9871L64.0987 33.4709C66.1475 32.4048 66.9402 29.8876 65.8693 27.8483L61.3884 19.3161C60.3173 17.2768 57.7883 16.4879 55.7396 17.5539L47.8744 21.646C48.1386 21.8972 48.3458 22.1924 48.5044 22.5653C49.0378 23.8203 48.6983 24.3511 48.9408 24.9786C49.1833 25.6061 48.8923 26.2336 50.541 26.6197C52.1897 27.0058 55.2932 28.1159 55.9719 28.3089C56.6508 28.502 56.5054 28.6469 56.5054 28.6469C56.5054 28.6469 57.0873 28.502 58.6875 28.7916C60.2878 29.0813 60.8211 29.2742 61.1605 29.9017C61.5 30.5292 61.4515 30.9153 60.918 31.8323C60.3847 32.7493 60.0937 33.956 59.6573 34.4868C59.2209 35.0178 58.6875 34.8731 58.0572 35.3556C57.4268 35.8383 56.6023 36.9001 54.4687 37.6723C53.5905 37.9903 52.8795 38.135 52.3435 38.1969C51.5171 38.2785 50.5227 38.2045 48.9711 37.6361C46.698 36.8037 45.0797 35.8443 44.6069 35.591C44.1341 35.3375 43.8795 35.1747 43.8795 35.1747C43.8795 35.1747 43.9209 35.2065 43.9937 35.2608L43.9704 35.2471C43.9704 35.2471 44.0581 35.3117 44.204 35.4152C44.4784 35.614 44.8957 35.9055 45.3343 36.1735C45.5184 36.2894 45.7087 36.4053 45.898 36.514C46.8435 37.057 47.7891 37.7087 48.9711 38.0707C50.153 38.4325 50.735 38.4687 51.1349 38.5051C51.3153 38.5214 51.4843 38.5155 51.6158 38.5042C51.9728 38.7607 52.4767 39.1573 52.8686 39.6031C53.5475 40.3753 53.8383 40.327 53.8383 42.3059C53.8383 44.2848 54.1779 45.3949 53.4019 45.7327C52.6261 46.0706 52.1897 46.1188 51.5108 45.057C51.2585 44.6624 51.0265 44.2615 50.8344 43.913C50.561 43.0925 50.5733 42.3861 50.2622 41.6363C49.9167 40.8037 49.7711 40.6045 49.4075 40.152C49.1308 39.8077 48.8124 39.5477 48.6758 39.4428C48.7479 39.5097 48.8917 39.6648 49.1711 40.0254C49.6621 40.6589 49.8075 40.9846 50.0076 41.6001C50.2075 42.2154 50.2986 42.4506 50.2439 42.8488C50.2405 42.874 50.238 42.8997 50.2362 42.9258C50.0515 43.0367 49.4569 43.3239 48.5044 43.1264C47.3405 42.885 47.3405 42.885 45.1584 41.775C43.9527 41.1616 43.325 40.7403 42.9059 40.5181C41.5858 39.6712 39.4242 38.2105 37.3184 38.3041C37.5521 38.3007 38.4882 38.33 39.6972 38.9393C41.0973 39.6452 41.2064 39.9711 41.661 40.4055C41.7062 40.4487 41.7518 40.4874 41.7973 40.5237C41.4267 40.776 41.2686 41.2398 41.4245 42.0164C41.6186 42.9816 42.2005 43.8021 41.958 47.3255C41.7155 50.8488 41.4731 52.2003 41.4731 52.2003C41.4731 52.2003 41.4845 52.2159 41.5059 52.2468C40.9349 55.3501 39.7517 58.2696 39.7517 58.2696C40.8451 56.2787 41.3324 54.5793 41.8299 52.7726C42.2661 53.5407 43.0077 55.0787 43.5098 57.3646C44.1799 60.4164 44.2476 63.0188 43.9136 65.7451C45.6341 65.2275 46.887 63.6381 46.887 61.757V51.8144L55.7396 56.4204C57.7883 57.4863 60.3173 56.6972 61.3884 54.658L65.8693 46.1257C66.9402 44.0866 66.1475 41.5692 64.0987 40.5033Z" fill="#2A562B"/>
<path d="M35.9551 20.9926C35.9872 21.0032 36.02 21.0135 36.0502 21.0247C35.9987 20.9996 35.9687 20.9847 35.9687 20.9847L35.9551 20.9926Z" fill="#2A562B"/>
<path d="M48.6758 39.4429C48.6211 39.3921 48.6074 39.3919 48.6074 39.3919C48.6074 39.3919 48.6328 39.4099 48.6758 39.4429Z" fill="#2A562B"/>
<path d="M37.3177 38.3041C37.2807 38.3047 37.2598 38.3059 37.2598 38.3059C37.279 38.3048 37.2983 38.305 37.3177 38.3041Z" fill="#2A562B"/>
<path d="M33.6051 27.6815C33.4597 29.1294 33.4232 30.324 32.3322 31.6995C31.2412 33.0751 30.041 34.4144 28.3317 35.1385C27.3794 35.5417 25.8291 36.0459 24.3092 36.3135C23.1008 36.5263 21.9118 36.5895 21.0581 36.3331C20.072 36.0368 19.9306 34.4145 21.0581 32.6769C22.1854 30.9393 24.0767 29.419 24.7312 27.7538C25.3858 26.0887 25.7132 25.0389 26.0405 23.9892C26.3679 22.9394 27.3498 22.4688 27.8226 22.2517C27.9607 22.1881 28.1286 22.1206 28.31 22.0465C27.8264 22.2227 27.2866 22.4398 26.9134 22.6499C26.8216 22.7014 26.7354 22.7542 26.6523 22.8089C26.3721 23.0628 26.2276 23.327 26.0041 23.772C25.9023 23.9745 25.8384 24.1021 25.792 24.2036C25.8039 24.1438 25.8102 24.1099 25.8102 24.1099C25.8102 24.1099 25.4707 24.8821 25.1313 25.7992C24.7919 26.7161 24.3555 27.585 23.3856 29.0329C22.8642 29.8115 22.1892 30.5614 21.5929 31.2392C21.7592 30.2539 21.9658 29.3196 22.2218 28.502C23.3667 24.8458 24.8875 23.0113 26.922 21.1606L19.9896 17.5539C17.9409 16.4879 15.4119 17.2769 14.3409 19.3161L9.85989 27.8484C8.78899 29.8876 9.58161 32.4048 11.6305 33.4708L18.3887 36.9871L11.6305 40.5033C9.58161 41.5693 8.78899 44.0865 9.85989 46.1257L13.8882 53.7959C14.0761 53.4177 14.2769 53.0453 14.4907 52.6798C16.1621 49.5064 18.5511 45.5177 19.6034 43.947C21.155 41.6301 21.0095 43.078 20.961 40.7132C20.9431 39.8399 20.9519 38.4528 21.0284 36.8642C21.7509 37.0401 22.6784 37.0685 23.9189 36.9001C26.0527 36.6106 28.2832 35.8383 29.641 34.9695C30.9128 34.1557 31.8016 33.0033 32.5068 31.7896C32.7891 31.3915 33.0416 30.9497 33.2778 30.3964C33.3238 30.2129 33.3684 30.0293 33.4115 29.8453C33.7313 28.4792 33.9527 27.0795 33.8497 25.4037C33.7897 25.9801 33.7201 26.5367 33.6051 27.6815Z" fill="#2A562B"/>
<path d="M83.5008 27.3197L88.6033 15.3476L93.9741 27.3197H83.5008ZM99.1625 27.3197H98.0101L89.5933 8.99123C89.4757 8.7352 89.2186 8.57085 88.9357 8.57085H88.2157C87.9273 8.57085 87.6666 8.74118 87.5522 9.0047L79.5897 27.3197H78.3772C77.978 27.3197 77.6543 27.642 77.6543 28.0394V33.0568C77.6543 33.4542 77.978 33.7764 78.3772 33.7764H80.4247C80.8239 33.7764 81.1476 33.4542 81.1476 33.0568V30.6843H96.3921V33.0568C96.3921 33.4542 96.7157 33.7764 97.115 33.7764H99.1625C99.5617 33.7764 99.8855 33.4542 99.8855 33.0568V28.0394C99.8855 27.642 99.5617 27.3197 99.1625 27.3197Z" fill="#2A562B"/>
<path d="M103.053 30.6843H114.872C115.271 30.6843 115.595 30.362 115.595 29.9647V27.9409C115.595 27.5435 115.271 27.2212 114.872 27.2212H105.852V20.5369H114.872C115.271 20.5369 115.595 20.2146 115.595 19.8174V17.7934C115.595 17.396 115.271 17.0739 114.872 17.0739H105.852V12.0338H114.957C115.356 12.0338 115.679 11.7117 115.679 11.3143V9.29037C115.679 8.89299 115.356 8.57083 114.957 8.57083H103.053C102.654 8.57083 102.33 8.89299 102.33 9.29037V29.9647C102.33 30.362 102.654 30.6843 103.053 30.6843Z" fill="#2A562B"/>
<path d="M117.887 30.6843H120.146C120.434 30.6843 120.694 30.5145 120.809 30.2522L127.137 15.8049L133.362 30.2484C133.476 30.5129 133.738 30.6843 134.027 30.6843H136.286C136.529 30.6843 136.756 30.5627 136.89 30.3607C137.023 30.1587 137.046 29.9034 136.95 29.681L128.04 9.00658C127.926 8.74225 127.665 8.57083 127.376 8.57083H126.924C126.636 8.57083 126.376 8.74062 126.261 9.00332L117.224 29.6777C117.127 29.9 117.149 30.1563 117.282 30.359C117.416 30.562 117.643 30.6843 117.887 30.6843Z" fill="#2A562B"/>
<path d="M142.65 19.7121C142.65 18.1866 143.008 16.7873 143.715 15.5533C144.42 14.3213 145.416 13.327 146.675 12.5981C147.933 11.8694 149.281 11.4999 150.682 11.4999C152.111 11.4999 153.484 11.8701 154.762 12.6001C156.039 13.3297 157.042 14.3125 157.742 15.5214C158.443 16.7312 158.798 18.1081 158.798 19.6137C158.798 21.1305 158.442 22.5256 157.739 23.7601C157.039 24.9898 156.05 25.973 154.8 26.6825C153.545 27.3945 152.159 27.7556 150.682 27.7556C148.445 27.7556 146.588 26.9936 145.003 25.426C143.42 23.8595 142.65 21.9906 142.65 19.7121ZM150.759 31.2046C153.986 31.2046 156.761 30.0696 159.007 27.8311C161.252 25.5929 162.39 22.8306 162.39 19.6208C162.39 16.3817 161.249 13.6136 158.997 11.3935C156.747 9.17544 153.918 8.0509 150.59 8.0509C148.53 8.0509 146.587 8.56814 144.816 9.58834C143.044 10.6094 141.625 12.0401 140.6 13.841C139.576 15.6385 139.058 17.6162 139.058 19.7192C139.058 22.8833 140.199 25.6178 142.45 27.8469C144.699 30.0749 147.495 31.2046 150.759 31.2046Z" fill="#2A562B"/>
<path d="M180.906 20.7336H181.358C183.047 20.7336 184.233 20.8123 184.882 20.9665C185.797 21.1858 186.488 21.5722 186.995 22.1473C187.483 22.7006 187.721 23.3315 187.721 24.0758C187.721 24.6646 187.551 25.1986 187.202 25.709C186.85 26.2238 186.397 26.5921 185.816 26.8345C185.201 27.0911 184.172 27.2213 182.757 27.2213H180.906V20.7336ZM185.572 15.8621C185.257 16.3212 184.837 16.649 184.29 16.8641C183.699 17.0965 182.717 17.2144 181.372 17.2144H180.906V12.0338H182.589C183.864 12.0338 184.78 12.2512 185.309 12.6803C185.801 13.0791 186.04 13.6253 186.04 14.35C186.04 14.9094 185.887 15.4041 185.572 15.8621ZM183.854 30.6843C186.088 30.6843 187.906 30.0388 189.258 28.766C190.622 27.4821 191.313 25.8901 191.313 24.0337C191.313 23.1174 191.127 22.2524 190.76 21.462C190.393 20.6714 189.873 19.988 189.214 19.4305C188.819 19.097 188.341 18.7968 187.767 18.5239C188.204 18.1429 188.569 17.7091 188.857 17.226C189.372 16.3629 189.633 15.3952 189.633 14.35C189.633 13.2327 189.336 12.2 188.751 11.2803C188.162 10.3559 187.349 9.66109 186.335 9.21514C185.347 8.78157 184.009 8.57084 182.245 8.57084H178.15C177.751 8.57084 177.427 8.89299 177.427 9.29037V29.9648C177.427 30.362 177.751 30.6843 178.15 30.6843H183.854Z" fill="#2A562B"/>
<path d="M85.3627 47.1635C86.6587 46.4369 88.0882 46.0685 89.6112 46.0685C91.0105 46.0685 92.3092 46.3498 93.4711 46.9042C94.6281 47.4565 95.6354 48.2818 96.4652 49.3571C96.7084 49.6719 97.1619 49.7313 97.4787 49.4897L99.1166 48.2389C99.4267 48.0019 99.4916 47.5627 99.2628 47.247C98.1997 45.7797 96.8176 44.6236 95.1543 43.8104C93.4987 43.0016 91.6242 42.5915 89.5829 42.5915C86.1931 42.5915 83.3273 43.7028 81.0653 45.8943C78.7981 48.0913 77.6484 50.8349 77.6484 54.0487C77.6484 57.0896 78.5958 59.7253 80.4657 61.8849C82.6983 64.4463 85.7754 65.7449 89.6112 65.7449C91.6192 65.7449 93.4677 65.3605 95.1054 64.6026C96.7509 63.8409 98.1437 62.7473 99.245 61.352C99.3648 61.2002 99.4182 61.007 99.3936 60.8156C99.3689 60.6242 99.2679 60.4507 99.1134 60.3341L97.4756 59.0973C97.1709 58.8676 96.7394 58.9133 96.4902 59.2015C94.6597 61.3217 92.451 62.3522 89.7383 62.3522C87.2663 62.3522 85.2814 61.5917 83.6702 60.0268C82.0639 58.4672 81.2829 56.5714 81.2829 54.2314C81.2829 52.6996 81.6421 51.3054 82.3507 50.0874C83.0579 48.8717 84.0714 47.8878 85.3627 47.1635Z" fill="#2A562B"/>
<path d="M120.074 54.1543C120.074 55.671 119.718 57.0662 119.015 58.3008C118.316 59.5303 117.327 60.5137 116.076 61.223C114.821 61.9351 113.436 62.2961 111.958 62.2961C109.722 62.2961 107.864 61.5341 106.28 59.9666C104.696 58.4001 103.926 56.5311 103.926 54.2526C103.926 52.7272 104.284 51.3279 104.991 50.0939C105.697 48.8619 106.693 47.8676 107.951 47.1386C109.21 46.4101 110.558 46.0406 111.958 46.0406C113.388 46.0406 114.761 46.4107 116.039 47.1406C117.316 47.8702 118.318 48.853 119.018 50.0619C119.719 51.2719 120.074 52.6487 120.074 54.1543ZM111.866 42.5916C109.806 42.5916 107.863 43.1088 106.092 44.129C104.32 45.15 102.901 46.5808 101.876 48.3815C100.853 50.179 100.334 52.1567 100.334 54.2597C100.334 57.424 101.475 60.1584 103.726 62.3875C105.976 64.6155 108.771 65.7451 112.036 65.7451C115.263 65.7451 118.037 64.6102 120.283 62.3716C122.528 60.1334 123.667 57.3712 123.667 54.1613C123.667 50.9222 122.525 48.1542 120.273 45.934C118.023 43.7161 115.195 42.5916 111.866 42.5916Z" fill="#2A562B"/>
<path d="M135.755 58.6166C135.755 59.2338 135.591 59.7749 135.252 60.2712C134.91 60.7718 134.462 61.133 133.883 61.3754C133.461 61.5518 132.589 61.7621 130.83 61.7621H128.997V55.2744H129.432C131.109 55.2744 132.378 55.3743 133.203 55.5707C133.948 55.7482 134.551 56.1054 135.048 56.6626C135.524 57.1968 135.755 57.836 135.755 58.6166ZM138.254 54.9001C137.5 53.8043 136.457 52.992 135.152 52.4858C133.884 51.9941 131.953 51.7551 129.249 51.7551H128.997V46.5746H136.634C137.033 46.5746 137.357 46.2523 137.357 45.8549V43.8311C137.357 43.4336 137.033 43.1115 136.634 43.1115H126.227C125.828 43.1115 125.504 43.4336 125.504 43.8311V64.5054C125.504 64.9029 125.828 65.2251 126.227 65.2251H131.931C134.24 65.2251 136.08 64.5529 137.401 63.2274C138.721 61.9036 139.39 60.3381 139.39 58.5744C139.39 57.2334 139.008 55.9973 138.254 54.9001Z" fill="#2A562B"/>
<path d="M152.564 54.9877H147.745L150.16 49.9088L152.564 54.9877ZM151.079 43.5271C150.96 43.2735 150.705 43.1116 150.424 43.1116H149.916C149.636 43.1116 149.381 43.2721 149.262 43.5237L139.448 64.1981C139.342 64.4209 139.359 64.6824 139.491 64.8907C139.624 65.099 139.854 65.2251 140.102 65.2251H142.418C142.697 65.2251 142.951 65.0648 143.071 64.8136L146.111 58.4227H154.146L157.216 64.8157C157.336 65.0659 157.59 65.2251 157.868 65.2251H160.11C160.357 65.2251 160.587 65.0995 160.72 64.8922C160.853 64.6847 160.87 64.4242 160.766 64.2014L151.079 43.5271Z" fill="#2A562B"/>
<path d="M166.719 53.1405L176.165 44.357C176.382 44.1552 176.453 43.842 176.344 43.5671C176.235 43.2921 175.969 43.1115 175.672 43.1115H172.883C172.699 43.1115 172.522 43.1813 172.388 43.3066L165.303 49.9268V43.8311C165.303 43.4336 164.979 43.1115 164.58 43.1115H162.462C162.063 43.1115 161.739 43.4336 161.739 43.8311V64.5054C161.739 64.9028 162.063 65.2251 162.462 65.2251H164.58C164.979 65.2251 165.303 64.9028 165.303 64.5054V56.6903L173.157 64.9986C173.294 65.1432 173.484 65.2251 173.684 65.2251H176.448C176.737 65.2251 176.998 65.0546 177.112 64.7913C177.226 64.528 177.173 64.222 176.976 64.0128L166.719 53.1405Z" fill="#2A562B"/>
<path d="M190.598 46.5746C190.997 46.5746 191.321 46.2523 191.321 45.8549V43.8311C191.321 43.4338 190.997 43.1115 190.598 43.1115H178.695C178.295 43.1115 177.972 43.4338 177.972 43.8311V64.5054C177.972 64.9029 178.295 65.2251 178.695 65.2251H190.513C190.913 65.2251 191.236 64.9029 191.236 64.5054V62.4816C191.236 62.0842 190.913 61.7621 190.513 61.7621H181.493V55.0777H190.513C190.913 55.0777 191.236 54.7554 191.236 54.358V52.3342C191.236 51.9368 190.913 51.6145 190.513 51.6145H181.493V46.5746H190.598Z" fill="#2A562B"/>
</g>
</g>
<defs>
<clipPath id="clip0_1_87">
<rect width="202" height="73" fill="white"/>
</clipPath>
</defs>
</svg>
