<svg width="55" height="58" viewBox="0 0 55 58" fill="none" xmlns="http://www.w3.org/2000/svg">
<mask id="mask0_1_1342" style="mask-type:alpha" maskUnits="userSpaceOnUse" x="0" y="0" width="55" height="58">
<rect x="1" y="1" width="52.7435" height="55.1445" rx="7" stroke="#799477" stroke-width="2"/>
</mask>
<g mask="url(#mask0_1_1342)">
<path d="M38.4166 56.3476C38.4166 60.7659 42.0425 64.4372 46.3493 63.4509C48.8361 62.8814 51.2619 62.044 53.5831 60.9485C58.3259 58.7102 62.5144 55.4498 65.8481 51.4014C69.1819 47.353 71.5783 42.6168 72.8652 37.5328C74.1522 32.4488 74.298 27.1429 73.292 21.9959C72.286 16.8489 70.1532 11.9884 67.0467 7.76305C63.9402 3.53774 59.9369 0.0524154 55.3242 -2.44285C50.7115 -4.93812 45.6036 -6.38147 40.3671 -6.66933C37.8042 -6.81022 35.2416 -6.67261 32.7234 -6.26387C28.3622 -5.556 26.3855 -0.789667 28.049 3.30346L37.8279 27.3638C38.2167 28.3205 38.4166 29.3433 38.4166 30.376V56.3476Z" fill="white"/>
</g>
<g filter="url(#filter0_i_1_1342)">
<rect x="6.72266" y="7.68335" width="41.7779" height="41.7779" rx="8" fill="#799477"/>
</g>
<rect x="1" y="1" width="52.7435" height="55.1445" rx="7" stroke="#799477" stroke-opacity="0.3" stroke-width="2"/>
<path d="M38.7015 19.3747C38.4751 19.1813 38.201 19.0533 37.9083 19.0044C37.6156 18.9555 37.3152 18.9875 37.0391 19.097L18.212 26.5528C17.8818 26.6797 17.6021 26.9125 17.416 27.2154C17.2298 27.5183 17.1476 27.8744 17.1819 28.2291C17.2126 28.5836 17.3564 28.9185 17.5917 29.1836C17.8271 29.4488 18.1414 29.6298 18.4874 29.6997L23.2706 30.6561V36.6824C23.2705 37.0084 23.3663 37.3271 23.5461 37.5981C23.7259 37.8691 23.9814 38.0801 24.2803 38.2044C24.4781 38.2847 24.6892 38.3266 24.9025 38.3278C25.1168 38.3286 25.3291 38.2862 25.527 38.2032C25.7249 38.1202 25.9044 37.9983 26.0549 37.8445L28.7066 35.181L32.7148 38.7392C33.0107 39.0023 33.3911 39.1485 33.7856 39.1505C33.9591 39.1541 34.1318 39.1263 34.2956 39.0683C34.5647 38.9824 34.8069 38.8272 34.9983 38.6179C35.1897 38.4087 35.3237 38.1527 35.3868 37.8753L39.2216 20.9893C39.2886 20.6979 39.2756 20.3936 39.184 20.1091C39.0923 19.8246 38.9255 19.5707 38.7015 19.3747ZM23.8928 29.1032L18.8138 28.0851L33.0513 22.4393L23.8928 29.1032ZM24.9025 36.6824V31.8079L27.4726 34.0909L24.9025 36.6824ZM33.7958 37.5051L25.392 30.0493L37.498 21.2361L33.7958 37.5051Z" fill="white"/>
<path d="M38.7015 19.3747C38.4751 19.1813 38.201 19.0533 37.9083 19.0044C37.6156 18.9555 37.3152 18.9875 37.0391 19.097L18.212 26.5528C17.8818 26.6797 17.6021 26.9125 17.416 27.2154C17.2298 27.5183 17.1476 27.8744 17.1819 28.2291C17.2126 28.5836 17.3564 28.9185 17.5917 29.1836C17.8271 29.4488 18.1414 29.6298 18.4874 29.6997L23.2706 30.6561V36.6824C23.2705 37.0084 23.3663 37.3271 23.5461 37.5981C23.7259 37.8691 23.9814 38.0801 24.2803 38.2044C24.4781 38.2847 24.6892 38.3266 24.9025 38.3278C25.1168 38.3286 25.3291 38.2862 25.527 38.2032C25.7249 38.1202 25.9044 37.9983 26.0549 37.8445L28.7066 35.181L32.7148 38.7392C33.0107 39.0023 33.3911 39.1485 33.7856 39.1505C33.9591 39.1541 34.1318 39.1263 34.2956 39.0683C34.5647 38.9824 34.8069 38.8272 34.9983 38.6179C35.1897 38.4087 35.3237 38.1527 35.3868 37.8753L39.2216 20.9893C39.2886 20.6979 39.2756 20.3936 39.184 20.1091C39.0923 19.8246 38.9255 19.5707 38.7015 19.3747ZM23.8928 29.1032L18.8138 28.0851L33.0513 22.4393L23.8928 29.1032ZM24.9025 36.6824V31.8079L27.4726 34.0909L24.9025 36.6824ZM33.7958 37.5051L25.392 30.0493L37.498 21.2361L33.7958 37.5051Z" fill="white"/>
<defs>
<filter id="filter0_i_1_1342" x="6.72266" y="7.68335" width="41.7778" height="51.7778" filterUnits="userSpaceOnUse" color-interpolation-filters="sRGB">
<feFlood flood-opacity="0" result="BackgroundImageFix"/>
<feBlend mode="normal" in="SourceGraphic" in2="BackgroundImageFix" result="shape"/>
<feColorMatrix in="SourceAlpha" type="matrix" values="0 0 0 0 0 0 0 0 0 0 0 0 0 0 0 0 0 0 127 0" result="hardAlpha"/>
<feOffset dy="10"/>
<feGaussianBlur stdDeviation="5"/>
<feComposite in2="hardAlpha" operator="arithmetic" k2="-1" k3="1"/>
<feColorMatrix type="matrix" values="0 0 0 0 0.754167 0 0 0 0 0.0157118 0 0 0 0 0.448599 0 0 0 0.1 0"/>
<feBlend mode="normal" in2="shape" result="effect1_innerShadow_1_1342"/>
</filter>
</defs>
</svg>
