<svg width="55" height="58" viewBox="0 0 55 58" fill="none" xmlns="http://www.w3.org/2000/svg">
<mask id="mask0_1_1343" style="mask-type:alpha" maskUnits="userSpaceOnUse" x="0" y="0" width="55" height="58">
<rect x="1" y="1" width="52.7435" height="55.1445" rx="7" stroke="#F957A6" stroke-width="2"/>
</mask>
<g mask="url(#mask0_1_1343)">
<path d="M44.3995 55.6898C45.3595 60.0025 49.6965 62.7982 53.6861 60.8997C55.6484 59.9659 57.5259 58.8517 59.2936 57.5683C63.2271 54.7126 66.5329 51.0802 69.0065 46.8958C71.4802 42.7114 73.069 38.064 73.6748 33.2411C74.2806 28.4181 73.8905 23.5221 72.5286 18.856C71.1666 14.1898 68.8619 9.8527 65.7568 6.11285C62.6518 2.37299 58.8124 -0.690058 54.4763 -2.88686C50.1402 -5.08366 45.3995 -6.36749 40.5474 -6.65896C38.3669 -6.78994 36.1847 -6.71926 34.0282 -6.45089C29.6438 -5.90526 27.4916 -1.21552 29.0023 2.93649L38.4166 28.8124L44.3995 55.6898Z" fill="#799477"/>
</g>
<g filter="url(#filter0_i_1_1343)">
<rect x="6.72314" y="7.68335" width="41.7779" height="41.7779" rx="8" fill="#7F937B"/>
</g>
<rect x="1.00049" y="1" width="52.7435" height="55.1445" rx="7" stroke="#799477" stroke-opacity="0.3" stroke-width="2"/>
<path d="M39.2616 22.6809C39.426 22.1116 39.2616 21.6941 38.4842 21.6941H35.9091C35.2539 21.6941 34.9545 22.0553 34.7901 22.452C34.7901 22.452 33.4808 25.7809 31.6255 27.9394C31.0266 28.5675 30.753 28.7659 30.4266 28.7659C30.2633 28.7659 30.0261 28.5675 30.0261 27.9982V22.6809C30.0261 21.9977 29.8371 21.6941 29.2911 21.6941H25.2446C24.836 21.6941 24.5894 22.01 24.5894 22.3112C24.5894 22.9576 25.517 23.107 25.6121 24.9288V28.8809C25.6121 29.7465 25.463 29.9045 25.1342 29.9045C24.2618 29.9045 22.1387 26.5633 20.8787 22.7384C20.6333 21.9953 20.3856 21.6953 19.728 21.6953H17.154C16.4178 21.6953 16.271 22.0565 16.271 22.4532C16.271 23.1657 17.1435 26.6918 20.3351 31.3553C22.4628 34.5398 25.4583 36.2661 28.1873 36.2661C29.823 36.2661 30.025 35.8829 30.025 35.2218V32.8147C30.025 32.0483 30.1811 31.894 30.699 31.894C31.0794 31.894 31.7347 32.0948 33.2624 33.6289C35.0073 35.4483 35.2962 36.2649 36.2767 36.2649H38.8506C39.5857 36.2649 39.9532 35.8817 39.7419 35.125C39.5105 34.3721 38.6768 33.2763 37.5707 31.9797C36.9695 31.2402 36.0712 30.4444 35.7976 30.0465C35.4159 29.5335 35.5263 29.307 35.7976 28.8516C35.7987 28.8528 38.9352 24.2468 39.2616 22.6809Z" fill="#F8F8F8"/>
<defs>
<filter id="filter0_i_1_1343" x="6.72314" y="7.68335" width="41.7778" height="51.7778" filterUnits="userSpaceOnUse" color-interpolation-filters="sRGB">
<feFlood flood-opacity="0" result="BackgroundImageFix"/>
<feBlend mode="normal" in="SourceGraphic" in2="BackgroundImageFix" result="shape"/>
<feColorMatrix in="SourceAlpha" type="matrix" values="0 0 0 0 0 0 0 0 0 0 0 0 0 0 0 0 0 0 127 0" result="hardAlpha"/>
<feOffset dy="10"/>
<feGaussianBlur stdDeviation="5"/>
<feComposite in2="hardAlpha" operator="arithmetic" k2="-1" k3="1"/>
<feColorMatrix type="matrix" values="0 0 0 0 0.754167 0 0 0 0 0.0157118 0 0 0 0 0.448599 0 0 0 0.1 0"/>
<feBlend mode="normal" in2="shape" result="effect1_innerShadow_1_1343"/>
</filter>
</defs>
</svg>
